<mxfile host="app.diagrams.net" modified="2020-11-30T22:56:42.612Z" agent="5.0 (Windows NT 10.0; Win64; x64) AppleWebKit/537.36 (KHTML, like Gecko) Chrome/86.0.4240.198 Safari/537.36" etag="2tXbQABnCymf8L9z7gVY" version="13.10.4" type="github">
  <diagram id="1z6lULHOusEPv8VU5eWn" name="Page-1">
    <mxGraphModel dx="1422" dy="794" grid="1" gridSize="10" guides="1" tooltips="1" connect="1" arrows="1" fold="1" page="1" pageScale="1" pageWidth="850" pageHeight="1100" math="0" shadow="0">
      <root>
        <mxCell id="0" />
        <mxCell id="1" parent="0" />
        <mxCell id="-F1VWpIIH1kwWnUSTfQh-1" value="" style="rounded=0;whiteSpace=wrap;html=1;" parent="1" vertex="1">
          <mxGeometry x="40" y="80" width="160" height="120" as="geometry" />
        </mxCell>
        <mxCell id="-F1VWpIIH1kwWnUSTfQh-2" value="" style="rounded=0;whiteSpace=wrap;html=1;" parent="1" vertex="1">
          <mxGeometry x="40" y="240" width="160" height="120" as="geometry" />
        </mxCell>
        <mxCell id="-F1VWpIIH1kwWnUSTfQh-6" value="" style="endArrow=none;html=1;" parent="1" edge="1">
          <mxGeometry width="50" height="50" relative="1" as="geometry">
            <mxPoint x="40" y="100" as="sourcePoint" />
            <mxPoint x="200" y="100" as="targetPoint" />
          </mxGeometry>
        </mxCell>
        <mxCell id="-F1VWpIIH1kwWnUSTfQh-7" value="BOOK" style="text;html=1;strokeColor=none;fillColor=none;align=center;verticalAlign=middle;whiteSpace=wrap;rounded=0;" parent="1" vertex="1">
          <mxGeometry x="50" y="80" width="40" height="20" as="geometry" />
        </mxCell>
        <mxCell id="-F1VWpIIH1kwWnUSTfQh-8" value="" style="endArrow=none;html=1;" parent="1" edge="1">
          <mxGeometry width="50" height="50" relative="1" as="geometry">
            <mxPoint x="40" y="260" as="sourcePoint" />
            <mxPoint x="200" y="260" as="targetPoint" />
          </mxGeometry>
        </mxCell>
        <mxCell id="-F1VWpIIH1kwWnUSTfQh-9" value="" style="endArrow=none;html=1;" parent="1" edge="1">
          <mxGeometry width="50" height="50" relative="1" as="geometry">
            <mxPoint x="200" y="119.56521739130437" as="sourcePoint" />
            <mxPoint x="203" y="121" as="targetPoint" />
          </mxGeometry>
        </mxCell>
        <mxCell id="-F1VWpIIH1kwWnUSTfQh-10" value="ID" style="text;html=1;strokeColor=none;fillColor=none;align=center;verticalAlign=middle;whiteSpace=wrap;rounded=0;" parent="1" vertex="1">
          <mxGeometry x="40" y="100" width="40" height="20" as="geometry" />
        </mxCell>
        <mxCell id="-F1VWpIIH1kwWnUSTfQh-11" value="" style="endArrow=none;html=1;" parent="1" edge="1">
          <mxGeometry width="50" height="50" relative="1" as="geometry">
            <mxPoint x="40" y="139.5" as="sourcePoint" />
            <mxPoint x="200" y="140" as="targetPoint" />
          </mxGeometry>
        </mxCell>
        <mxCell id="-F1VWpIIH1kwWnUSTfQh-12" value="Author ID" style="text;html=1;strokeColor=none;fillColor=none;align=center;verticalAlign=middle;whiteSpace=wrap;rounded=0;" parent="1" vertex="1">
          <mxGeometry x="40" y="120" width="70" height="20" as="geometry" />
        </mxCell>
        <mxCell id="-F1VWpIIH1kwWnUSTfQh-13" value="" style="endArrow=none;html=1;" parent="1" edge="1">
          <mxGeometry width="50" height="50" relative="1" as="geometry">
            <mxPoint x="40" y="160" as="sourcePoint" />
            <mxPoint x="200" y="160" as="targetPoint" />
          </mxGeometry>
        </mxCell>
        <mxCell id="-F1VWpIIH1kwWnUSTfQh-16" value="" style="endArrow=none;html=1;entryX=1;entryY=0.325;entryDx=0;entryDy=0;entryPerimeter=0;" parent="1" target="-F1VWpIIH1kwWnUSTfQh-1" edge="1">
          <mxGeometry width="50" height="50" relative="1" as="geometry">
            <mxPoint x="40" y="120" as="sourcePoint" />
            <mxPoint x="160" y="111.42857142857144" as="targetPoint" />
          </mxGeometry>
        </mxCell>
        <mxCell id="-F1VWpIIH1kwWnUSTfQh-17" value="int" style="text;html=1;strokeColor=none;fillColor=none;align=center;verticalAlign=middle;whiteSpace=wrap;rounded=0;" parent="1" vertex="1">
          <mxGeometry x="160" y="100" width="40" height="20" as="geometry" />
        </mxCell>
        <mxCell id="-F1VWpIIH1kwWnUSTfQh-18" value="int" style="text;html=1;strokeColor=none;fillColor=none;align=center;verticalAlign=middle;whiteSpace=wrap;rounded=0;" parent="1" vertex="1">
          <mxGeometry x="160" y="120" width="40" height="20" as="geometry" />
        </mxCell>
        <mxCell id="-F1VWpIIH1kwWnUSTfQh-19" value="int" style="text;html=1;strokeColor=none;fillColor=none;align=center;verticalAlign=middle;whiteSpace=wrap;rounded=0;" parent="1" vertex="1">
          <mxGeometry x="160" y="140" width="40" height="20" as="geometry" />
        </mxCell>
        <mxCell id="-F1VWpIIH1kwWnUSTfQh-20" value="Authors" style="text;html=1;strokeColor=none;fillColor=none;align=center;verticalAlign=middle;whiteSpace=wrap;rounded=0;" parent="1" vertex="1">
          <mxGeometry x="40" y="240" width="70" height="20" as="geometry" />
        </mxCell>
        <mxCell id="-F1VWpIIH1kwWnUSTfQh-21" value="" style="endArrow=none;html=1;" parent="1" edge="1">
          <mxGeometry width="50" height="50" relative="1" as="geometry">
            <mxPoint x="40" y="280" as="sourcePoint" />
            <mxPoint x="200" y="280" as="targetPoint" />
          </mxGeometry>
        </mxCell>
        <mxCell id="-F1VWpIIH1kwWnUSTfQh-22" value="ID" style="text;html=1;strokeColor=none;fillColor=none;align=center;verticalAlign=middle;whiteSpace=wrap;rounded=0;" parent="1" vertex="1">
          <mxGeometry x="30" y="260" width="50" height="20" as="geometry" />
        </mxCell>
        <mxCell id="-F1VWpIIH1kwWnUSTfQh-24" value="" style="endArrow=none;html=1;" parent="1" edge="1">
          <mxGeometry width="50" height="50" relative="1" as="geometry">
            <mxPoint x="40" y="299.5" as="sourcePoint" />
            <mxPoint x="200" y="300" as="targetPoint" />
          </mxGeometry>
        </mxCell>
        <mxCell id="-F1VWpIIH1kwWnUSTfQh-25" value="Author Name" style="text;html=1;strokeColor=none;fillColor=none;align=center;verticalAlign=middle;whiteSpace=wrap;rounded=0;" parent="1" vertex="1">
          <mxGeometry x="30" y="280" width="110" height="20" as="geometry" />
        </mxCell>
        <mxCell id="-F1VWpIIH1kwWnUSTfQh-28" value="int" style="text;html=1;strokeColor=none;fillColor=none;align=center;verticalAlign=middle;whiteSpace=wrap;rounded=0;" parent="1" vertex="1">
          <mxGeometry x="160" y="260" width="40" height="20" as="geometry" />
        </mxCell>
        <mxCell id="-F1VWpIIH1kwWnUSTfQh-29" value="string" style="text;html=1;strokeColor=none;fillColor=none;align=center;verticalAlign=middle;whiteSpace=wrap;rounded=0;" parent="1" vertex="1">
          <mxGeometry x="160" y="280" width="40" height="20" as="geometry" />
        </mxCell>
        <mxCell id="-F1VWpIIH1kwWnUSTfQh-33" value="" style="endArrow=none;html=1;entryX=1;entryY=0.25;entryDx=0;entryDy=0;" parent="1" target="-F1VWpIIH1kwWnUSTfQh-35" edge="1">
          <mxGeometry width="50" height="50" relative="1" as="geometry">
            <mxPoint x="360" y="100" as="sourcePoint" />
            <mxPoint x="530" y="100" as="targetPoint" />
          </mxGeometry>
        </mxCell>
        <mxCell id="-F1VWpIIH1kwWnUSTfQh-35" value="g" style="rounded=0;whiteSpace=wrap;html=1;" parent="1" vertex="1">
          <mxGeometry x="360" y="80" width="320" height="70" as="geometry" />
        </mxCell>
        <mxCell id="-F1VWpIIH1kwWnUSTfQh-36" value="" style="endArrow=none;html=1;entryX=1;entryY=0.25;entryDx=0;entryDy=0;exitX=0;exitY=0.25;exitDx=0;exitDy=0;" parent="1" source="-F1VWpIIH1kwWnUSTfQh-35" target="-F1VWpIIH1kwWnUSTfQh-35" edge="1">
          <mxGeometry width="50" height="50" relative="1" as="geometry">
            <mxPoint x="365" y="100" as="sourcePoint" />
            <mxPoint x="475" y="100" as="targetPoint" />
          </mxGeometry>
        </mxCell>
        <mxCell id="-F1VWpIIH1kwWnUSTfQh-38" value="Libary" style="text;html=1;strokeColor=none;fillColor=none;align=center;verticalAlign=middle;whiteSpace=wrap;rounded=0;" parent="1" vertex="1">
          <mxGeometry x="385" y="80" width="40" height="20" as="geometry" />
        </mxCell>
        <mxCell id="-F1VWpIIH1kwWnUSTfQh-43" value="" style="endArrow=none;html=1;" parent="1" edge="1">
          <mxGeometry width="50" height="50" relative="1" as="geometry">
            <mxPoint x="400" y="150" as="sourcePoint" />
            <mxPoint x="400" y="100" as="targetPoint" />
            <Array as="points">
              <mxPoint x="400" y="100" />
            </Array>
          </mxGeometry>
        </mxCell>
        <mxCell id="-F1VWpIIH1kwWnUSTfQh-46" value="(Shared)&lt;br&gt;author id" style="text;html=1;strokeColor=none;fillColor=none;align=center;verticalAlign=middle;whiteSpace=wrap;rounded=0;" parent="1" vertex="1">
          <mxGeometry x="400" y="110" width="70" height="20" as="geometry" />
        </mxCell>
        <mxCell id="-F1VWpIIH1kwWnUSTfQh-50" value="" style="endArrow=none;html=1;" parent="1" edge="1">
          <mxGeometry width="50" height="50" relative="1" as="geometry">
            <mxPoint x="480" y="100" as="sourcePoint" />
            <mxPoint x="480" y="150" as="targetPoint" />
          </mxGeometry>
        </mxCell>
        <mxCell id="-F1VWpIIH1kwWnUSTfQh-51" value="Book id" style="text;html=1;strokeColor=none;fillColor=none;align=center;verticalAlign=middle;whiteSpace=wrap;rounded=0;" parent="1" vertex="1">
          <mxGeometry x="490" y="110" width="40" height="20" as="geometry" />
        </mxCell>
        <mxCell id="-F1VWpIIH1kwWnUSTfQh-53" value="" style="endArrow=classic;html=1;" parent="1" edge="1">
          <mxGeometry width="50" height="50" relative="1" as="geometry">
            <mxPoint x="210" y="275" as="sourcePoint" />
            <mxPoint x="470" y="140" as="targetPoint" />
            <Array as="points">
              <mxPoint x="470" y="275" />
            </Array>
          </mxGeometry>
        </mxCell>
        <mxCell id="-F1VWpIIH1kwWnUSTfQh-57" value="" style="endArrow=none;html=1;" parent="1" edge="1">
          <mxGeometry width="50" height="50" relative="1" as="geometry">
            <mxPoint x="560" y="150" as="sourcePoint" />
            <mxPoint x="560" y="100" as="targetPoint" />
            <Array as="points">
              <mxPoint x="560" y="130" />
            </Array>
          </mxGeometry>
        </mxCell>
        <mxCell id="RfjSWYFy4Sq8KLrp-bQa-2" value="" style="endArrow=classic;html=1;" edge="1" parent="1">
          <mxGeometry width="50" height="50" relative="1" as="geometry">
            <mxPoint x="210" y="110" as="sourcePoint" />
            <mxPoint x="490" y="70" as="targetPoint" />
            <Array as="points">
              <mxPoint x="260" y="30" />
              <mxPoint x="420" y="10" />
            </Array>
          </mxGeometry>
        </mxCell>
        <mxCell id="RfjSWYFy4Sq8KLrp-bQa-3" value="genre" style="text;html=1;strokeColor=none;fillColor=none;align=center;verticalAlign=middle;whiteSpace=wrap;rounded=0;" vertex="1" parent="1">
          <mxGeometry x="600" y="110" width="40" height="20" as="geometry" />
        </mxCell>
        <mxCell id="RfjSWYFy4Sq8KLrp-bQa-5" value="title" style="text;html=1;strokeColor=none;fillColor=none;align=center;verticalAlign=middle;whiteSpace=wrap;rounded=0;" vertex="1" parent="1">
          <mxGeometry x="40" y="140" width="40" height="20" as="geometry" />
        </mxCell>
        <mxCell id="RfjSWYFy4Sq8KLrp-bQa-6" value="Text" style="text;html=1;strokeColor=none;fillColor=none;align=center;verticalAlign=middle;whiteSpace=wrap;rounded=0;" vertex="1" parent="1">
          <mxGeometry x="400" y="300" width="40" height="20" as="geometry" />
        </mxCell>
      </root>
    </mxGraphModel>
  </diagram>
</mxfile>
